<svg width="48" height="48" viewBox="0 0 48 48" fill="none" xmlns="http://www.w3.org/2000/svg">
<g clip-path="url(#clip0_19_124)">
<path d="M24 4C12.954 4 4 12.954 4 24C4 35.046 12.954 44 24 44C35.046 44 44 35.046 44 24C44 12.954 35.046 4 24 4ZM26 39.861V28H31V24H26V21C26 19.897 26.897 19 28 19H31V15H28C24.691 15 22 17.691 22 21V24H17V28H22V39.861C14.12 38.872 8 32.144 8 24C8 15.177 15.178 8 24 8C32.822 8 40 15.177 40 24C40 32.144 33.88 38.872 26 39.861Z" fill="#B40D17"/>
</g>
<defs>
<clipPath id="clip0_19_124">
<rect width="48" height="48" fill="white"/>
</clipPath>
</defs>
</svg>
