<svg width="40" height="35" viewBox="0 0 40 35" fill="none" xmlns="http://www.w3.org/2000/svg">
<path d="M4.444 20L20 35L35.556 20C38.256 17.967 40 14.744 40 11.111C40 4.978 35.022 0 28.889 0C25.256 0 22.022 1.756 20 4.456C17.978 1.756 14.744 0 11.111 0C4.978 0 0 4.978 0 11.111C0 14.744 1.744 17.967 4.444 20ZM11.111 4C13.367 4 15.44 5.04 16.798 6.853L20 11.128L23.202 6.853C24.56 5.04 26.633 4 28.889 4C32.81 4 36 7.19 36 11.111C36 13.365 34.961 15.44 33.149 16.805L32.954 16.952L32.778 17.121L20 29.443L7.221 17.121L7.045 16.952L6.85 16.805C5.039 15.44 4 13.365 4 11.111C4 7.19 7.19 4 11.111 4Z" fill="#B40D17"/>
</svg>
