<svg width="48" height="48" viewBox="0 0 48 48" fill="none" xmlns="http://www.w3.org/2000/svg">
<g clip-path="url(#clip0_19_121)">
<path d="M36.019 8C37.0744 8.00132 38.0862 8.42117 38.8325 9.16747C39.5788 9.91376 39.9987 10.9256 40 11.981V36.019C39.9987 37.0744 39.5788 38.0862 38.8325 38.8325C38.0862 39.5788 37.0744 39.9987 36.019 40H11.981C10.9256 39.9987 9.91376 39.5788 9.16747 38.8325C8.42117 38.0862 8.00132 37.0744 8 36.019V11.981C8.00132 10.9256 8.42117 9.91376 9.16747 9.16747C9.91376 8.42117 10.9256 8.00132 11.981 8H36.019ZM36.019 4H11.981C10.9329 3.99987 9.89501 4.20621 8.92665 4.60725C7.95829 5.00829 7.07842 5.59616 6.33729 6.33729C5.59616 7.07842 5.00829 7.95829 4.60725 8.92665C4.20621 9.89501 3.99987 10.9329 4 11.981V36.019C3.99987 37.0671 4.20621 38.105 4.60725 39.0734C5.00829 40.0417 5.59616 40.9216 6.33729 41.6627C7.07842 42.4038 7.95829 42.9917 8.92665 43.3927C9.89501 43.7938 10.9329 44.0001 11.981 44H36.019C37.0671 44.0001 38.105 43.7938 39.0734 43.3927C40.0417 42.9917 40.9216 42.4038 41.6627 41.6627C42.4038 40.9216 42.9917 40.0417 43.3927 39.0734C43.7938 38.105 44.0001 37.0671 44 36.019V11.981C44.0001 10.9329 43.7938 9.89501 43.3927 8.92665C42.9917 7.95829 42.4038 7.07842 41.6627 6.33729C40.9216 5.59616 40.0417 5.00829 39.0734 4.60725C38.105 4.20621 37.0671 3.99987 36.019 4Z" fill="#B40D17"/>
<path d="M24 34C18.486 34 14 29.514 14 24C14 18.486 18.486 14 24 14C29.514 14 34 18.486 34 24C34 29.514 29.514 34 24 34ZM24 18C20.691 18 18 20.691 18 24C18 27.309 20.691 30 24 30C27.309 30 30 27.309 30 24C30 20.691 27.309 18 24 18Z" fill="#B40D17"/>
<path d="M35 15C36.1046 15 37 14.1046 37 13C37 11.8954 36.1046 11 35 11C33.8954 11 33 11.8954 33 13C33 14.1046 33.8954 15 35 15Z" fill="#B40D17"/>
</g>
<defs>
<clipPath id="clip0_19_121">
<rect width="48" height="48" fill="white"/>
</clipPath>
</defs>
</svg>
