<svg width="30" height="30" viewBox="0 0 30 30" fill="none" xmlns="http://www.w3.org/2000/svg">
<mask id="mask0_15_15" style="mask-type:luminance" maskUnits="userSpaceOnUse" x="0" y="0" width="30" height="30">
<path d="M30 0H0V30H30V0Z" fill="white"/>
</mask>
<g mask="url(#mask0_15_15)">
<path d="M11.2499 20C13.2149 20 15.0224 19.3444 16.4831 18.2506L24.9999 26.7681L26.7674 25L18.2506 16.4831C19.3443 15.0225 19.9999 13.215 19.9999 11.25C19.9999 6.41748 16.0824 2.49998 11.2499 2.49998C6.41744 2.49998 2.49994 6.41748 2.49994 11.25C2.49994 16.0825 6.41744 20 11.2499 20ZM11.2499 4.99998C14.6962 4.99998 17.4999 7.80373 17.4999 11.25C17.4999 14.6962 14.6962 17.5 11.2499 17.5C7.80369 17.5 4.99994 14.6962 4.99994 11.25C4.99994 7.80373 7.80369 4.99998 11.2499 4.99998Z" fill="#057474"/>
</g>
</svg>
