<svg width="30" height="30" viewBox="0 0 30 30" fill="none" xmlns="http://www.w3.org/2000/svg">
<mask id="mask0_4_7" style="mask-type:luminance" maskUnits="userSpaceOnUse" x="0" y="0" width="30" height="30">
<path d="M30 0H0V30H30V0Z" fill="white"/>
</mask>
<g mask="url(#mask0_4_7)">
<g filter="url(#filter0_d_4_7)">
<path d="M19.5487 15.9531C21.34 14.5825 22.5 12.4294 22.5 10C22.5 5.85813 19.1419 2.5 15 2.5C10.8581 2.5 7.5 5.85813 7.5 10C7.5 12.4294 8.66 14.5825 10.4513 15.9531C6.15 17.8319 3.125 22.2906 3.125 27.5H26.875C26.875 22.2906 23.85 17.8319 19.5487 15.9531ZM10 10C10 7.24313 12.2431 5 15 5C17.7569 5 20 7.24313 20 10C20 12.7569 17.7569 15 15 15C12.2431 15 10 12.7569 10 10ZM15 17.5C19.3606 17.5 23.035 20.6919 24.0781 25H5.92188C6.965 20.6919 10.6394 17.5 15 17.5Z" fill="#B40D17"/>
</g>
</g>
<defs>
<filter id="filter0_d_4_7" x="-0.875" y="2.5" width="31.75" height="33" filterUnits="userSpaceOnUse" color-interpolation-filters="sRGB">
<feFlood flood-opacity="0" result="BackgroundImageFix"/>
<feColorMatrix in="SourceAlpha" type="matrix" values="0 0 0 0 0 0 0 0 0 0 0 0 0 0 0 0 0 0 127 0" result="hardAlpha"/>
<feOffset dy="4"/>
<feGaussianBlur stdDeviation="2"/>
<feComposite in2="hardAlpha" operator="out"/>
<feColorMatrix type="matrix" values="0 0 0 0 0 0 0 0 0 0 0 0 0 0 0 0 0 0 0.25 0"/>
<feBlend mode="normal" in2="BackgroundImageFix" result="effect1_dropShadow_4_7"/>
<feBlend mode="normal" in="SourceGraphic" in2="effect1_dropShadow_4_7" result="shape"/>
</filter>
</defs>
</svg>
