<svg width="48" height="48" viewBox="0 0 48 48" fill="none" xmlns="http://www.w3.org/2000/svg">
<g clip-path="url(#clip0_19_118)">
<path d="M17.937 43.491H17.791C11.904 43.459 7.02699 41.479 4.40999 38.06C4.30586 37.9207 4.20744 37.7773 4.11499 37.63L4.03399 37.505C3.82778 37.2046 3.70753 36.8537 3.68622 36.49C3.66492 36.1262 3.74337 35.7636 3.9131 35.4412C4.08283 35.1189 4.3374 34.849 4.64932 34.6607C4.96124 34.4725 5.31866 34.373 5.68299 34.373C7.41499 34.373 10.921 33.668 14.483 31.234C3.04199 23.726 3.94099 13.646 6.21099 9.105C6.35295 8.82179 6.56013 8.57633 6.81548 8.38882C7.07083 8.20132 7.36705 8.07712 7.67977 8.02645C7.9925 7.97577 8.31278 8.00008 8.61427 8.09736C8.91577 8.19464 9.18986 8.36211 9.41399 8.586C14.177 13.348 19.761 14.964 22.148 15.275C22.969 10.58 27.074 7 32 7C33.937 7 35.788 7.548 37.403 8.593L42.513 7.98C42.8655 7.93798 43.2229 7.99051 43.5484 8.13219C43.8739 8.27388 44.1559 8.49962 44.3654 8.78625C44.5748 9.07289 44.7043 9.41009 44.7404 9.76327C44.7766 10.1165 44.7181 10.4729 44.571 10.796L42 16.435V17C42 26.862 39.045 34.125 33.216 38.588C29.142 41.708 23.58 43.491 17.937 43.491ZM10.05 37.696C12.064 38.83 14.773 39.474 17.813 39.491H17.932C22.647 39.491 27.444 37.97 30.785 35.412C35.572 31.746 38 25.551 38 17V16C38 15.714 38.062 15.431 38.181 15.17L39.455 12.375L37.117 12.655C36.5964 12.7186 36.0717 12.5742 35.657 12.253C34.6117 11.4395 33.3246 10.9985 32 11C28.691 11 26 13.691 26 17C26 17.905 25.45 18.696 24.564 19.062C22.352 19.98 15.109 18.396 8.95799 13.524C8.23899 17.776 9.74299 24.282 18.948 29.239C19.2303 29.3905 19.4721 29.6076 19.6529 29.8721C19.8337 30.1366 19.9483 30.4407 19.9869 30.7587C20.0255 31.0768 19.9871 31.3995 19.8749 31.6996C19.7626 31.9997 19.5799 32.2684 19.342 32.483C16.294 35.244 12.939 36.875 10.05 37.696Z" fill="#B40D17"/>
</g>
<defs>
<clipPath id="clip0_19_118">
<rect width="48" height="48" fill="white"/>
</clipPath>
</defs>
</svg>
