<svg width="48" height="48" viewBox="0 0 48 48" fill="none" xmlns="http://www.w3.org/2000/svg">
<g clip-path="url(#clip0_2_2083)">
<path d="M24 38C36 38 44 24 44 24C44 24 36 10 24 10C12 10 4 24 4 24C4 24 12 38 24 38ZM24 14C31.072 14 36.741 20.584 39.201 23.992C36.728 27.396 31.024 34 24 34C16.928 34 11.259 27.416 8.799 24.008C11.272 20.604 16.976 14 24 14Z" fill="#B40D17"/>
<path d="M24 32C28.418 32 32 28.418 32 24C32 19.582 28.418 16 24 16C19.582 16 16 19.582 16 24C16 28.418 19.582 32 24 32ZM24 20C26.206 20 28 21.794 28 24C28 26.206 26.206 28 24 28C21.794 28 20 26.206 20 24C20 21.794 21.794 20 24 20Z" fill="#B40D17"/>
</g>
<defs>
<clipPath id="clip0_2_2083">
<rect width="48" height="48" fill="white"/>
</clipPath>
</defs>
</svg>
