<svg width="48" height="48" viewBox="0 0 48 48" fill="none" xmlns="http://www.w3.org/2000/svg">
<g clip-path="url(#clip0_19_117)">
<path d="M24 38.519C22.829 38.519 12.475 38.497 9.519 37.704C8.42246 37.4096 7.42262 36.832 6.61979 36.0292C5.81697 35.2263 5.23939 34.2265 4.945 33.13C4.138 30.123 4.13 24.258 4.13 24.01C4.13 23.762 4.139 17.897 4.945 14.89C5.24024 13.7936 5.81821 12.7939 6.6211 11.9911C7.42398 11.1882 8.42362 10.6102 9.52001 10.315C12.475 9.52196 22.829 9.49896 24 9.49896C25.171 9.49896 35.525 9.52096 38.482 10.314C39.5782 10.609 40.5777 11.1868 41.3805 11.9895C42.1832 12.7922 42.761 13.7917 43.056 14.888V14.889H43.057C43.862 17.896 43.87 23.76 43.87 24.008C43.87 24.256 43.861 30.121 43.056 33.128C42.761 34.2247 42.183 35.2246 41.3799 36.0275C40.5768 36.8305 39.5768 37.4082 38.48 37.703C35.525 38.496 25.171 38.519 24 38.519ZM24 13.499C19.78 13.499 12.398 13.684 10.554 14.178C10.1357 14.2903 9.75424 14.5106 9.44796 14.8169C9.14168 15.1232 8.92133 15.5046 8.809 15.923C8.252 17.998 8.129 22.463 8.129 24.009C8.129 25.555 8.252 30.021 8.808 32.095C9.036 32.945 9.704 33.614 10.552 33.839C12.4 34.334 19.781 34.519 24 34.519C28.219 34.519 35.603 34.334 37.447 33.84C37.8653 33.7276 38.2467 33.5074 38.5531 33.2013C38.8595 32.8953 39.0802 32.5141 39.193 32.096C39.748 30.021 39.871 25.555 39.871 24.009C39.871 22.463 39.748 17.997 39.193 15.924L39.192 15.923C39.0795 15.5049 38.8592 15.1237 38.5531 14.8175C38.2471 14.5112 37.866 14.2907 37.448 14.178C35.603 13.684 28.22 13.499 24 13.499Z" fill="#B40D17"/>
<path d="M20.887 30.986C20.3566 30.986 19.8479 30.7753 19.4728 30.4002C19.0977 30.0251 18.887 29.5164 18.887 28.986V19.033C18.8867 18.6818 18.979 18.3367 19.1544 18.0325C19.3299 17.7283 19.5824 17.4757 19.8865 17.3001C20.1907 17.1245 20.5357 17.0321 20.8869 17.0323C21.2381 17.0324 21.583 17.1251 21.887 17.301L30.506 22.278C30.81 22.4535 31.0625 22.706 31.238 23.01C31.4135 23.314 31.5059 23.6589 31.5059 24.01C31.5059 24.361 31.4135 24.7059 31.238 25.0099C31.0625 25.314 30.81 25.5664 30.506 25.742L21.887 30.719C21.577 30.897 21.232 30.986 20.887 30.986ZM22.887 22.496V25.521L25.506 24.008L22.887 22.496Z" fill="#B40D17"/>
</g>
<defs>
<clipPath id="clip0_19_117">
<rect width="48" height="48" fill="white"/>
</clipPath>
</defs>
</svg>
